<?xml version="1.0" encoding="UTF-8"?>
<svg width="512px" height="512px" viewBox="0 0 512 512" version="1.1" xmlns="http://www.w3.org/2000/svg" xmlns:xlink="http://www.w3.org/1999/xlink">
    <title>Robot Assistant</title>
    <g id="robot-assistant" stroke="none" fill="none">
        <path d="M384,512 L128,512 C57.6,512 0,454.4 0,384 L0,128 C0,57.6 57.6,0 128,0 L384,0 C454.4,0 512,57.6 512,128 L512,384 C512,454.4 454.4,512 384,512 Z" id="path" fill="#3789AA" fill-rule="nonzero"></path>
        <g id="group" stroke-width="1" fill-rule="evenodd" transform="translate(91.7333, 84.2667)" fill="#FFFFFF">
            <path d="M291.2,153.6 C282.666667,120.533333 252.8,94.9333333 216.533333,94.9333333 L176,94.9333333 L176,72.5333333 C190.933333,67.2 202.666667,53.3333333 202.666667,37.3333333 C202.666667,17.0666667 185.6,1.89478063e-14 165.333333,1.89478063e-14 C145.066667,1.89478063e-14 128,17.0666667 128,37.3333333 C128,54.4 138.666667,68.2666667 154.666667,72.5333333 L154.666667,94.9333333 L114.133333,94.9333333 C77.8666667,94.9333333 48,119.466667 39.4666667,153.6 C18.1333333,154.666667 4.26325641e-14,172.8 4.26325641e-14,195.2 L4.26325641e-14,204.8 C4.26325641e-14,227.2 18.1333333,245.333333 40.5333333,246.4 C50.1333333,278.4 78.9333333,300.8 114.133333,300.8 L218.666667,300.8 C253.866667,300.8 282.666667,277.333333 292.266667,246.4 C314.666667,245.333333 332.8,227.2 332.8,204.8 L332.8,195.2 C330.666667,172.8 312.533333,154.666667 291.2,153.6 Z M164.266667,22.4 C172.8,22.4 179.2,28.8 179.2,37.3333333 C179.2,45.8666667 172.8,52.2666667 164.266667,52.2666667 C155.733333,52.2666667 149.333333,45.8666667 149.333333,37.3333333 C149.333333,28.8 155.733333,22.4 164.266667,22.4 Z M269.866667,224 C269.866667,253.866667 245.333333,277.333333 216.533333,277.333333 L112,277.333333 C82.1333333,277.333333 58.6666667,252.8 58.6666667,224 L58.6666667,171.733333 C58.6666667,141.866667 83.2,118.4 112,118.4 L216.533333,118.4 C246.4,118.4 269.866667,142.933333 269.866667,171.733333 L269.866667,224 Z" id="shape" fill-rule="nonzero"></path>
            <path d="M150.4,163.2 C148.266667,158.933333 144,156.8 139.733333,156.8 C135.466667,156.8 131.2,158.933333 129.066667,163.2 L101.333333,221.866667 C98.1333333,227.2 101.333333,234.666667 106.666667,236.8 C112,240 119.466667,236.8 121.6,231.466667 L138.666667,195.2 L155.733333,231.466667 C157.866667,235.733333 162.133333,237.866667 166.4,237.866667 C168.533333,237.866667 169.6,237.866667 171.733333,236.8 C177.066667,233.6 180.266667,227.2 177.066667,221.866667 L150.4,163.2 Z" id="path" fill-rule="nonzero"></path>
            <path d="M206.933333,156.8 C200.533333,156.8 195.2,162.133333 195.2,168.533333 L195.2,227.2 C195.2,233.6 200.533333,238.933333 206.933333,238.933333 C213.333333,238.933333 218.666667,233.6 218.666667,227.2 L218.666667,168.533333 C217.6,162.133333 213.333333,156.8 206.933333,156.8 Z" id="path" fill-rule="nonzero"></path>
        </g>
    </g>
</svg>